<?xml version="1.0" encoding="UTF-8" standalone="no"?>
<!DOCTYPE svg PUBLIC "-//W3C//DTD SVG 1.1//EN" "http://www.w3.org/Graphics/SVG/1.1/DTD/svg11.dtd">
<svg width="100%" height="100%" viewBox="0 0 128 128" version="1.1" xmlns="http://www.w3.org/2000/svg" xmlns:xlink="http://www.w3.org/1999/xlink" xml:space="preserve" xmlns:serif="http://www.serif.com/" style="fill-rule:evenodd;clip-rule:evenodd;stroke-linejoin:round;stroke-miterlimit:2;">
    <g transform="matrix(1,0,0,1,-3908.75,0)">
        <g id="Favicon" transform="matrix(0.0547574,0,0,0.0917345,3866.23,-35.9307)">
            <rect x="776.493" y="391.681" width="2337.58" height="1395.33" style="fill:none;"/>
            <clipPath id="_clip1">
                <rect x="776.493" y="391.681" width="2337.58" height="1395.33"/>
            </clipPath>
            <g clip-path="url(#_clip1)">
                <g transform="matrix(18.2624,0,0,10.901,-70606.5,391.681)">
                    <circle cx="3972.75" cy="64" r="64" style="fill:rgb(228,228,231);"/>
                </g>
                <g transform="matrix(4.20956,0,0,2.51274,-4073.22,-200.442)">
                    <path d="M1523.65,588.201L1585.67,588.201L1508.3,456.865L1433.59,602.809C1431.11,607.582 1428.2,611.067 1424.86,613.263C1421.52,615.459 1417.27,616.557 1412.11,616.557C1407.15,616.557 1403.23,615.125 1400.37,612.261C1397.5,609.396 1395.5,605.1 1394.35,599.371L1369.22,468.651L1300.4,602.809C1297.92,607.582 1295.06,611.067 1291.81,613.263C1288.57,615.459 1284.27,616.557 1278.92,616.557C1273.96,616.557 1270.04,615.125 1267.18,612.261C1264.31,609.396 1262.31,605.1 1261.16,599.371L1228.51,432.098C1227.17,425.415 1228.08,420.069 1231.23,416.059C1234.38,412.049 1239.11,410.044 1245.41,410.044C1250.18,410.044 1254.05,411.428 1257.01,414.197C1259.97,416.966 1261.93,421.214 1262.88,426.943L1287.1,561.274L1357.12,423.792C1359.6,419.018 1362.41,415.533 1365.57,413.338C1368.72,411.142 1372.58,410.044 1377.17,410.044C1381.56,410.044 1385.04,411.428 1387.62,414.197C1390.2,416.966 1392.06,421.405 1393.21,427.516L1417.95,562.85L1488.01,423.506C1490.31,418.923 1492.88,415.533 1495.75,413.338C1498.4,411.306 1501.86,410.214 1506.15,410.062L1506.25,410.059C1506.56,410.049 1506.88,410.044 1507.2,410.044C1512.3,410.044 1516.2,411.235 1518.91,413.618C1521.75,416.054 1524.81,420.928 1527.48,425.511L1628.31,592.784C1630.79,596.794 1631.84,600.613 1631.46,604.241C1631.07,607.869 1629.5,610.828 1626.73,613.12C1623.96,615.411 1620.09,616.557 1615.13,616.557C1614.56,616.557 1614.01,616.543 1613.46,616.514C1613.01,616.543 1612.55,616.557 1612.08,616.557L1523.94,616.557C1518.79,616.557 1514.87,615.555 1512.2,613.55C1509.52,611.545 1508.19,608.728 1508.19,605.1C1508.19,600.135 1509.52,596.078 1512.2,592.927C1514.87,589.776 1518.69,588.201 1523.65,588.201Z" style="fill:rgb(24,24,27);"/>
                </g>
            </g>
        </g>
    </g>
</svg>
