<?xml version="1.0" encoding="UTF-8" standalone="no"?>
<!DOCTYPE svg PUBLIC "-//W3C//DTD SVG 1.1//EN" "http://www.w3.org/Graphics/SVG/1.1/DTD/svg11.dtd">
<svg width="100%" height="100%" viewBox="0 0 2288 1377" version="1.1" xmlns="http://www.w3.org/2000/svg" xmlns:xlink="http://www.w3.org/1999/xlink" xml:space="preserve" xmlns:serif="http://www.serif.com/" style="fill-rule:evenodd;clip-rule:evenodd;stroke-linejoin:round;stroke-miterlimit:2;">
    <g transform="matrix(1,0,0,1,-776.493,-391.681)">
        <g transform="matrix(5.66628,0,0,5.66628,-6181.21,-1931.74)">
            <path d="M1523.65,588.201L1585.67,588.201L1508.3,456.865L1433.59,602.809C1431.11,607.582 1428.2,611.067 1424.86,613.263C1421.52,615.459 1417.27,616.557 1412.11,616.557C1407.15,616.557 1403.23,615.125 1400.37,612.261C1397.5,609.396 1395.5,605.1 1394.35,599.371L1369.22,468.651L1300.4,602.809C1297.92,607.582 1295.06,611.067 1291.81,613.263C1288.57,615.459 1284.27,616.557 1278.92,616.557C1273.96,616.557 1270.04,615.125 1267.18,612.261C1264.31,609.396 1262.31,605.1 1261.16,599.371L1228.51,432.098C1227.17,425.415 1228.08,420.069 1231.23,416.059C1234.38,412.049 1239.11,410.044 1245.41,410.044C1250.18,410.044 1254.05,411.428 1257.01,414.197C1259.97,416.966 1261.93,421.214 1262.88,426.943L1287.1,561.274L1357.12,423.792C1359.6,419.018 1362.41,415.533 1365.57,413.338C1368.72,411.142 1372.58,410.044 1377.17,410.044C1381.56,410.044 1385.04,411.428 1387.62,414.197C1390.2,416.966 1392.06,421.405 1393.21,427.516L1417.95,562.85L1488.01,423.506C1490.31,418.923 1492.88,415.533 1495.75,413.338C1498.4,411.306 1501.86,410.214 1506.15,410.062L1506.25,410.059C1506.56,410.049 1506.88,410.044 1507.2,410.044C1512.3,410.044 1516.2,411.235 1518.91,413.618C1521.75,416.054 1524.81,420.928 1527.48,425.511L1628.31,592.784C1630.79,596.794 1631.84,600.613 1631.46,604.241C1631.07,607.869 1629.5,610.828 1626.73,613.12C1623.96,615.411 1620.09,616.557 1615.13,616.557C1614.56,616.557 1614.01,616.543 1613.46,616.514C1613.01,616.543 1612.55,616.557 1612.08,616.557L1523.94,616.557C1518.79,616.557 1514.87,615.555 1512.2,613.55C1509.52,611.545 1508.19,608.728 1508.19,605.1C1508.19,600.135 1509.52,596.078 1512.2,592.927C1514.87,589.776 1518.69,588.201 1523.65,588.201Z" style="fill:rgb(24,24,27);"/>
        </g>
        <g transform="matrix(1.66646,0,0,1.66646,-659.614,-765.853)">
            <g transform="matrix(96,0,0,96,1440.97,1519.78)">
                <path d="M0.278,0.007C0.264,0.007 0.252,0.003 0.244,-0.005C0.236,-0.013 0.23,-0.026 0.227,-0.042L0.11,-0.65C0.106,-0.669 0.109,-0.684 0.118,-0.695C0.127,-0.707 0.14,-0.712 0.158,-0.712C0.171,-0.712 0.182,-0.709 0.19,-0.701C0.199,-0.693 0.204,-0.681 0.207,-0.664L0.311,-0.096L0.273,-0.096L0.566,-0.673C0.573,-0.686 0.581,-0.697 0.59,-0.703C0.599,-0.709 0.61,-0.712 0.624,-0.712C0.636,-0.712 0.646,-0.708 0.654,-0.7C0.661,-0.692 0.667,-0.679 0.67,-0.662L0.774,-0.096L0.741,-0.096L1.032,-0.674C1.038,-0.687 1.045,-0.697 1.054,-0.703C1.062,-0.709 1.073,-0.712 1.086,-0.712C1.106,-0.712 1.12,-0.706 1.127,-0.693C1.134,-0.68 1.132,-0.664 1.123,-0.645L0.81,-0.032C0.803,-0.019 0.795,-0.009 0.785,-0.002C0.776,0.004 0.764,0.007 0.749,0.007C0.734,0.007 0.723,0.003 0.715,-0.005C0.706,-0.013 0.701,-0.026 0.697,-0.042L0.596,-0.579L0.618,-0.579L0.339,-0.032C0.332,-0.019 0.324,-0.009 0.315,-0.002C0.306,0.004 0.293,0.007 0.278,0.007Z" style="fill:rgb(24,24,27);fill-rule:nonzero;"/>
            </g>
            <g transform="matrix(96,0,0,96,1541.73,1519.78)">
                <path d="M0.045,0.007C0.033,0.007 0.023,0.005 0.014,-0.001C0.006,-0.007 0.001,-0.015 -0.001,-0.025C-0.002,-0.034 0,-0.045 0.007,-0.057L0.382,-0.677C0.39,-0.689 0.398,-0.698 0.407,-0.704C0.417,-0.71 0.428,-0.712 0.442,-0.712C0.456,-0.712 0.467,-0.709 0.476,-0.702C0.485,-0.695 0.492,-0.685 0.496,-0.671L0.67,-0.06C0.674,-0.044 0.675,-0.032 0.673,-0.022C0.67,-0.012 0.665,-0.005 0.657,0C0.65,0.005 0.641,0.007 0.63,0.007C0.615,0.007 0.604,0.004 0.595,-0.004C0.587,-0.012 0.581,-0.024 0.577,-0.039L0.536,-0.194L0.571,-0.172L0.151,-0.172L0.196,-0.192L0.098,-0.024C0.092,-0.014 0.084,-0.006 0.076,-0C0.067,0.005 0.057,0.007 0.045,0.007ZM0.429,-0.59L0.223,-0.238L0.2,-0.256L0.549,-0.256L0.524,-0.237L0.431,-0.59L0.429,-0.59Z" style="fill:rgb(24,24,27);fill-rule:nonzero;"/>
            </g>
            <g transform="matrix(96,0,0,96,1606.91,1519.78)">
                <path d="M0.312,0.007C0.297,0.007 0.284,0.003 0.275,-0.005C0.266,-0.013 0.259,-0.024 0.255,-0.04L0.086,-0.641C0.083,-0.654 0.083,-0.665 0.086,-0.675C0.089,-0.684 0.094,-0.692 0.102,-0.697C0.11,-0.702 0.12,-0.705 0.131,-0.705C0.144,-0.705 0.155,-0.702 0.164,-0.695C0.172,-0.688 0.179,-0.677 0.183,-0.659L0.338,-0.088L0.3,-0.088L0.642,-0.668C0.65,-0.681 0.658,-0.691 0.667,-0.696C0.676,-0.702 0.687,-0.705 0.7,-0.705C0.714,-0.705 0.725,-0.702 0.733,-0.695C0.741,-0.689 0.745,-0.681 0.746,-0.671C0.747,-0.66 0.744,-0.649 0.737,-0.638L0.374,-0.031C0.366,-0.018 0.357,-0.008 0.348,-0.002C0.339,0.004 0.327,0.007 0.312,0.007Z" style="fill:rgb(24,24,27);fill-rule:nonzero;"/>
            </g>
            <g transform="matrix(96,0,0,96,1674.05,1519.78)">
                <path d="M0.105,-0C0.085,-0 0.071,-0.005 0.062,-0.016C0.054,-0.026 0.051,-0.041 0.053,-0.06L0.148,-0.654C0.15,-0.671 0.157,-0.684 0.167,-0.692C0.177,-0.701 0.19,-0.705 0.207,-0.705L0.569,-0.705C0.583,-0.705 0.594,-0.702 0.602,-0.697C0.609,-0.691 0.613,-0.683 0.613,-0.672C0.613,-0.655 0.609,-0.643 0.6,-0.634C0.59,-0.626 0.579,-0.621 0.564,-0.621L0.242,-0.621L0.207,-0.4L0.5,-0.4C0.514,-0.4 0.525,-0.397 0.532,-0.391C0.54,-0.386 0.543,-0.377 0.543,-0.366C0.543,-0.35 0.539,-0.338 0.53,-0.329C0.521,-0.32 0.509,-0.316 0.494,-0.316L0.194,-0.316L0.156,-0.084L0.47,-0.084C0.484,-0.084 0.495,-0.081 0.503,-0.075C0.511,-0.07 0.514,-0.061 0.514,-0.05C0.514,-0.034 0.51,-0.022 0.501,-0.013C0.492,-0.004 0.48,-0 0.465,-0L0.105,-0Z" style="fill:rgb(24,24,27);fill-rule:nonzero;"/>
            </g>
            <g transform="matrix(96,0,0,96,1730.61,1519.78)">
            </g>
            <g transform="matrix(96,0,0,96,1755.94,1519.78)">
                <path d="M0.045,0.007C0.033,0.007 0.023,0.005 0.014,-0.001C0.006,-0.007 0.001,-0.015 -0.001,-0.025C-0.002,-0.034 0,-0.045 0.007,-0.057L0.382,-0.677C0.39,-0.689 0.398,-0.698 0.407,-0.704C0.417,-0.71 0.428,-0.712 0.442,-0.712C0.456,-0.712 0.467,-0.709 0.476,-0.702C0.485,-0.695 0.492,-0.685 0.496,-0.671L0.67,-0.06C0.674,-0.044 0.675,-0.032 0.673,-0.022C0.67,-0.012 0.665,-0.005 0.657,0C0.65,0.005 0.641,0.007 0.63,0.007C0.615,0.007 0.604,0.004 0.595,-0.004C0.587,-0.012 0.581,-0.024 0.577,-0.039L0.536,-0.194L0.571,-0.172L0.151,-0.172L0.196,-0.192L0.098,-0.024C0.092,-0.014 0.084,-0.006 0.076,-0C0.067,0.005 0.057,0.007 0.045,0.007ZM0.429,-0.59L0.223,-0.238L0.2,-0.256L0.549,-0.256L0.524,-0.237L0.431,-0.59L0.429,-0.59Z" style="fill:rgb(24,24,27);fill-rule:nonzero;"/>
            </g>
            <g transform="matrix(96,0,0,96,1826.58,1519.78)">
                <path d="M0.095,0.007C0.079,0.007 0.067,0.002 0.06,-0.009C0.052,-0.019 0.05,-0.034 0.053,-0.054L0.148,-0.653C0.151,-0.671 0.157,-0.684 0.167,-0.692C0.177,-0.701 0.191,-0.705 0.208,-0.705L0.418,-0.705C0.495,-0.705 0.553,-0.688 0.592,-0.654C0.631,-0.62 0.651,-0.573 0.651,-0.513C0.651,-0.463 0.64,-0.422 0.617,-0.39C0.594,-0.357 0.563,-0.333 0.524,-0.317C0.484,-0.301 0.44,-0.293 0.389,-0.294L0.389,-0.308L0.41,-0.308C0.44,-0.308 0.465,-0.299 0.484,-0.282C0.503,-0.265 0.519,-0.241 0.531,-0.21L0.588,-0.06C0.594,-0.046 0.596,-0.034 0.594,-0.024C0.593,-0.014 0.588,-0.006 0.581,-0.001C0.573,0.005 0.561,0.007 0.547,0.007C0.533,0.007 0.522,0.004 0.514,-0.003C0.505,-0.01 0.498,-0.022 0.492,-0.038L0.424,-0.217C0.414,-0.244 0.401,-0.263 0.385,-0.274C0.368,-0.285 0.345,-0.291 0.315,-0.291L0.193,-0.291L0.155,-0.044C0.152,-0.027 0.146,-0.014 0.136,-0.006C0.126,0.003 0.113,0.007 0.095,0.007ZM0.206,-0.369L0.392,-0.369C0.442,-0.369 0.481,-0.381 0.508,-0.405C0.536,-0.428 0.55,-0.462 0.55,-0.506C0.55,-0.544 0.538,-0.573 0.515,-0.593C0.492,-0.612 0.455,-0.622 0.405,-0.622L0.246,-0.622L0.206,-0.369Z" style="fill:rgb(24,24,27);fill-rule:nonzero;"/>
            </g>
            <g transform="matrix(96,0,0,96,1889.63,1519.78)">
                <path d="M0.268,0.007C0.251,0.007 0.239,0.002 0.231,-0.009C0.224,-0.019 0.221,-0.034 0.224,-0.053L0.313,-0.618L0.11,-0.618C0.095,-0.618 0.083,-0.621 0.075,-0.628C0.067,-0.634 0.063,-0.643 0.063,-0.654C0.063,-0.67 0.068,-0.683 0.077,-0.692C0.087,-0.701 0.099,-0.705 0.115,-0.705L0.634,-0.705C0.649,-0.705 0.661,-0.702 0.669,-0.696C0.677,-0.69 0.681,-0.681 0.681,-0.67C0.681,-0.653 0.676,-0.641 0.667,-0.631C0.658,-0.622 0.645,-0.618 0.629,-0.618L0.417,-0.618L0.326,-0.044C0.323,-0.028 0.317,-0.015 0.308,-0.006C0.298,0.003 0.285,0.007 0.268,0.007Z" style="fill:rgb(24,24,27);fill-rule:nonzero;"/>
            </g>
            <g transform="matrix(96,0,0,96,1948.28,1519.78)">
                <path d="M0.097,0.007C0.079,0.007 0.067,0.002 0.059,-0.009C0.051,-0.019 0.049,-0.035 0.052,-0.054L0.149,-0.661C0.151,-0.678 0.157,-0.691 0.167,-0.699C0.177,-0.708 0.19,-0.712 0.207,-0.712C0.224,-0.712 0.236,-0.707 0.244,-0.697C0.251,-0.686 0.253,-0.671 0.25,-0.651L0.154,-0.045C0.151,-0.028 0.145,-0.015 0.136,-0.006C0.127,0.003 0.114,0.007 0.097,0.007Z" style="fill:rgb(24,24,27);fill-rule:nonzero;"/>
            </g>
            <g transform="matrix(96,0,0,96,1974.01,1519.78)">
                <path d="M0.299,0.009C0.269,0.009 0.24,0.007 0.212,0.003C0.183,-0.001 0.156,-0.008 0.129,-0.018C0.102,-0.028 0.078,-0.04 0.055,-0.055C0.045,-0.061 0.038,-0.069 0.035,-0.078C0.031,-0.087 0.03,-0.096 0.032,-0.105C0.034,-0.115 0.038,-0.123 0.044,-0.129C0.05,-0.136 0.058,-0.14 0.068,-0.141C0.077,-0.143 0.087,-0.14 0.099,-0.133C0.131,-0.113 0.164,-0.099 0.199,-0.091C0.234,-0.083 0.27,-0.079 0.308,-0.079C0.358,-0.079 0.398,-0.089 0.429,-0.11C0.459,-0.13 0.474,-0.158 0.474,-0.192C0.474,-0.217 0.465,-0.238 0.447,-0.255C0.429,-0.272 0.398,-0.286 0.354,-0.295L0.248,-0.321C0.201,-0.332 0.163,-0.352 0.135,-0.38C0.106,-0.409 0.092,-0.448 0.092,-0.499C0.092,-0.532 0.099,-0.562 0.113,-0.588C0.127,-0.615 0.147,-0.638 0.172,-0.656C0.197,-0.675 0.226,-0.69 0.259,-0.7C0.291,-0.709 0.326,-0.714 0.363,-0.714C0.4,-0.714 0.439,-0.709 0.479,-0.698C0.52,-0.688 0.556,-0.671 0.587,-0.647C0.596,-0.64 0.602,-0.632 0.605,-0.623C0.609,-0.614 0.609,-0.605 0.607,-0.596C0.605,-0.587 0.601,-0.579 0.595,-0.574C0.589,-0.568 0.581,-0.564 0.571,-0.564C0.561,-0.563 0.55,-0.567 0.537,-0.575C0.513,-0.592 0.485,-0.605 0.454,-0.614C0.423,-0.622 0.392,-0.626 0.361,-0.626C0.329,-0.626 0.301,-0.621 0.276,-0.611C0.25,-0.601 0.231,-0.587 0.216,-0.569C0.202,-0.551 0.195,-0.53 0.195,-0.506C0.195,-0.476 0.203,-0.454 0.219,-0.439C0.235,-0.424 0.259,-0.413 0.29,-0.405L0.396,-0.379C0.457,-0.365 0.503,-0.343 0.532,-0.313C0.562,-0.283 0.577,-0.247 0.577,-0.204C0.577,-0.169 0.569,-0.138 0.555,-0.111C0.54,-0.085 0.52,-0.062 0.495,-0.045C0.469,-0.027 0.439,-0.013 0.406,-0.004C0.373,0.005 0.337,0.009 0.299,0.009Z" style="fill:rgb(24,24,27);fill-rule:nonzero;"/>
            </g>
            <g transform="matrix(96,0,0,96,2033.44,1519.78)">
                <path d="M0.045,0.007C0.033,0.007 0.023,0.005 0.014,-0.001C0.006,-0.007 0.001,-0.015 -0.001,-0.025C-0.002,-0.034 0,-0.045 0.007,-0.057L0.382,-0.677C0.39,-0.689 0.398,-0.698 0.407,-0.704C0.417,-0.71 0.428,-0.712 0.442,-0.712C0.456,-0.712 0.467,-0.709 0.476,-0.702C0.485,-0.695 0.492,-0.685 0.496,-0.671L0.67,-0.06C0.674,-0.044 0.675,-0.032 0.673,-0.022C0.67,-0.012 0.665,-0.005 0.657,0C0.65,0.005 0.641,0.007 0.63,0.007C0.615,0.007 0.604,0.004 0.595,-0.004C0.587,-0.012 0.581,-0.024 0.577,-0.039L0.536,-0.194L0.571,-0.172L0.151,-0.172L0.196,-0.192L0.098,-0.024C0.092,-0.014 0.084,-0.006 0.076,-0C0.067,0.005 0.057,0.007 0.045,0.007ZM0.429,-0.59L0.223,-0.238L0.2,-0.256L0.549,-0.256L0.524,-0.237L0.431,-0.59L0.429,-0.59Z" style="fill:rgb(24,24,27);fill-rule:nonzero;"/>
            </g>
            <g transform="matrix(96,0,0,96,2104.09,1519.78)">
                <path d="M0.093,0.007C0.078,0.007 0.067,0.002 0.059,-0.008C0.052,-0.018 0.049,-0.032 0.052,-0.05L0.15,-0.668C0.153,-0.684 0.159,-0.695 0.167,-0.702C0.175,-0.709 0.186,-0.712 0.198,-0.712C0.212,-0.712 0.222,-0.71 0.229,-0.705C0.235,-0.699 0.242,-0.691 0.249,-0.68L0.57,-0.13L0.547,-0.13L0.631,-0.665C0.634,-0.681 0.64,-0.693 0.649,-0.701C0.658,-0.709 0.671,-0.712 0.687,-0.712C0.702,-0.712 0.713,-0.707 0.719,-0.697C0.726,-0.687 0.728,-0.673 0.725,-0.656L0.627,-0.038C0.625,-0.023 0.62,-0.012 0.613,-0.004C0.605,0.004 0.595,0.007 0.583,0.007C0.569,0.007 0.559,0.005 0.551,-0.001C0.543,-0.006 0.535,-0.015 0.528,-0.027L0.208,-0.575L0.23,-0.575L0.146,-0.04C0.144,-0.024 0.139,-0.012 0.13,-0.004C0.122,0.004 0.109,0.007 0.093,0.007Z" style="fill:rgb(24,24,27);fill-rule:nonzero;"/>
            </g>
            <g transform="matrix(96,0,0,96,2175.38,1519.78)">
                <path d="M0.299,0.009C0.269,0.009 0.24,0.007 0.212,0.003C0.183,-0.001 0.156,-0.008 0.129,-0.018C0.102,-0.028 0.078,-0.04 0.055,-0.055C0.045,-0.061 0.038,-0.069 0.035,-0.078C0.031,-0.087 0.03,-0.096 0.032,-0.105C0.034,-0.115 0.038,-0.123 0.044,-0.129C0.05,-0.136 0.058,-0.14 0.068,-0.141C0.077,-0.143 0.087,-0.14 0.099,-0.133C0.131,-0.113 0.164,-0.099 0.199,-0.091C0.234,-0.083 0.27,-0.079 0.308,-0.079C0.358,-0.079 0.398,-0.089 0.429,-0.11C0.459,-0.13 0.474,-0.158 0.474,-0.192C0.474,-0.217 0.465,-0.238 0.447,-0.255C0.429,-0.272 0.398,-0.286 0.354,-0.295L0.248,-0.321C0.201,-0.332 0.163,-0.352 0.135,-0.38C0.106,-0.409 0.092,-0.448 0.092,-0.499C0.092,-0.532 0.099,-0.562 0.113,-0.588C0.127,-0.615 0.147,-0.638 0.172,-0.656C0.197,-0.675 0.226,-0.69 0.259,-0.7C0.291,-0.709 0.326,-0.714 0.363,-0.714C0.4,-0.714 0.439,-0.709 0.479,-0.698C0.52,-0.688 0.556,-0.671 0.587,-0.647C0.596,-0.64 0.602,-0.632 0.605,-0.623C0.609,-0.614 0.609,-0.605 0.607,-0.596C0.605,-0.587 0.601,-0.579 0.595,-0.574C0.589,-0.568 0.581,-0.564 0.571,-0.564C0.561,-0.563 0.55,-0.567 0.537,-0.575C0.513,-0.592 0.485,-0.605 0.454,-0.614C0.423,-0.622 0.392,-0.626 0.361,-0.626C0.329,-0.626 0.301,-0.621 0.276,-0.611C0.25,-0.601 0.231,-0.587 0.216,-0.569C0.202,-0.551 0.195,-0.53 0.195,-0.506C0.195,-0.476 0.203,-0.454 0.219,-0.439C0.235,-0.424 0.259,-0.413 0.29,-0.405L0.396,-0.379C0.457,-0.365 0.503,-0.343 0.532,-0.313C0.562,-0.283 0.577,-0.247 0.577,-0.204C0.577,-0.169 0.569,-0.138 0.555,-0.111C0.54,-0.085 0.52,-0.062 0.495,-0.045C0.469,-0.027 0.439,-0.013 0.406,-0.004C0.373,0.005 0.337,0.009 0.299,0.009Z" style="fill:rgb(24,24,27);fill-rule:nonzero;"/>
            </g>
            <g transform="matrix(96,0,0,96,2235.1,1519.78)">
            </g>
        </g>
    </g>
</svg>
